<svg xmlns="http://www.w3.org/2000/svg" xmlns:svg="http://www.w3.org/2000/svg" id="svg8" width="1000" height="300" version="1.1" viewBox="0 0 264.583 79.375"><metadata id="metadata14"/><path id="path2" fill="#0f0c19" d="M-.025 81.657H266.92V-.133H-.025z"/><g id="text6" aria-label=".is-a.dev" style="font-size:24.747px;line-height:1.25;font-family:CozetteVector;-inkscape-font-specification:CozetteVector;stroke-width:.619"><path d="m 79.832553,45.909444 h 4.108388 V 50.042 h -4.108388 z" style="fill:#4e3aa3" id="path839"/><path d="m 94.260247,35.614306 v -2.078362 h 2.054194 v 2.078362 z M 92.206052,37.6685 h 4.108389 v 10.319306 h -2.054194 v -8.265112 h -2.054195 z m 4.108389,10.319306 H 100.447 V 50.042 h -4.132559 z" style="fill:#4e3aa3" id="path841"/><path d="m 104.57955,37.6685 h 8.24095 v 2.054194 h -8.24095 z m 0,2.054194 v 2.078362 h -2.07836 v -2.078362 z m 0,2.078362 h 6.18675 v 2.054194 h -6.18675 z m 6.18675,2.054194 h 2.0542 v 4.132556 h -2.0542 z m 0,4.132556 V 50.042 h -8.26511 v -2.054194 z" style="fill:#4e3aa3" id="path843"/><path d="M 114.87469,41.801056 H 125.194 v 2.054194 h -10.31931 z" style="fill:#4e3aa3" id="path845"/><path d="m 135.5133,50.042 v -2.054194 h -2.07836 v -2.078362 h 2.07836 v -6.18675 h -6.18675 V 37.6685 h 8.24095 V 50.042 Z m -6.18675,-10.319306 v 8.265112 h -2.07836 v -8.265112 z m 4.10839,8.265112 V 50.042 h -4.10839 v -2.054194 z" style="fill:#4e3aa3" id="path847"/><path d="m 141.70005,45.909444 h 4.10839 V 50.042 h -4.10839 z" style="fill:#4e3aa3" id="path849"/><path d="m 160.2603,37.6685 v -6.18675 h 2.05419 V 50.042 h -8.24094 v -2.054194 h -2.07836 v -8.265112 h 2.07836 v 8.265112 h 6.18675 v -8.265112 h -6.18675 V 37.6685 Z" style="fill:#4e3aa3" id="path851"/><path d="m 166.44705,37.6685 h 6.18675 v 2.054194 h -6.18675 z m 6.18675,2.054194 h 2.0542 v 4.132556 h -8.24095 v 4.132556 h -2.07836 v -8.265112 h 2.07836 v 2.078362 h 6.18675 z m 0,8.265112 v -2.078362 h 2.0542 v 2.078362 z m 0,0 V 50.042 h -6.18675 v -2.054194 z" style="fill:#4e3aa3" id="path853"/><path d="m 180.87475,50.042 v -4.132556 h -2.0542 v -4.108388 h -2.07836 V 37.6685 h 2.07836 v 4.132556 h 2.0542 v 4.108388 h 2.05419 v -4.108388 h 2.07836 V 37.6685 h 2.0542 v 4.132556 h -2.0542 v 4.108388 h -2.07836 V 50.042 Z" style="fill:#4e3aa3" id="path855"/></g></svg>