<?xml version="1.0" encoding="UTF-8" standalone="no"?>
<svg
   width="800"
   height="800"
   viewBox="0 0 211.667 211.667"
   version="1.1"
   id="svg1"
   sodipodi:docname="logo.svg"
   inkscape:version="1.3.2 (091e20ef0f, 2023-11-25)"
   inkscape:export-filename="logo.svg"
   inkscape:export-xdpi="96"
   inkscape:export-ydpi="96"
   xmlns:inkscape="http://www.inkscape.org/namespaces/inkscape"
   xmlns:sodipodi="http://sodipodi.sourceforge.net/DTD/sodipodi-0.dtd"
   xmlns="http://www.w3.org/2000/svg"
   xmlns:svg="http://www.w3.org/2000/svg">
  <defs
     id="defs1" />
  <sodipodi:namedview
     id="namedview1"
     pagecolor="#505050"
     bordercolor="#ffffff"
     borderopacity="1"
     inkscape:showpageshadow="0"
     inkscape:pageopacity="0"
     inkscape:pagecheckerboard="1"
     inkscape:deskcolor="#505050"
     inkscape:zoom="0.295"
     inkscape:cx="401.69492"
     inkscape:cy="398.30508"
     inkscape:window-width="1140"
     inkscape:window-height="1051"
     inkscape:window-x="4"
     inkscape:window-y="21"
     inkscape:window-maximized="1"
     inkscape:current-layer="svg1" />
  <path
     fill="#0f0c19"
     d="M-.025 214.411h213.801V-.133H-.025z"
     id="path1" />
  <path
     style="font-size:35.207px;line-height:1.25;font-family:CozetteVector;-inkscape-font-specification:CozetteVector;fill:#4e3aa3;stroke-width:0.88"
     d="m 35.549278,111.22286 h -5.415139 v 5.41514 h 5.415139 z M 49.095723,97.676418 h 2.698974 v -2.698975 h -2.698974 z m -2.716165,5.415142 h 2.716165 v 10.83028 h 2.698974 v 2.71616 h 5.415139 v -2.71616 h -5.415139 v -13.52926 h -5.415139 z m 13.546444,2.71616 h 2.698974 v 2.69898 h 8.131305 v 5.41514 h 2.698974 v -5.41514 h -2.698974 v -2.69898 h -8.131305 v -2.71616 h 10.830279 v -2.69898 H 62.624976 v 2.69898 h -2.698974 z m 0,10.83028 h 10.830279 v -2.71616 H 59.926002 Z m 16.245419,-8.1313 h 13.529252 v -2.69898 H 76.171421 Z m 16.245418,5.41514 h 2.698974 v 2.71616 h 5.415137 v -2.71616 h -5.415137 v -10.83028 h 8.131307 v 8.1313 h -2.71617 v 2.69898 h 2.71617 v 2.71616 h 2.69897 V 100.39258 H 95.115813 v 2.69898 h -2.698974 z m 24.359531,-2.69898 h -5.41513 v 5.41514 h 5.41513 z m 18.96158,2.69898 h -8.1313 v 2.71616 h 10.83028 V 92.261278 h -2.69898 v 8.131302 h -8.1313 v 2.69898 h 8.1313 z m -10.83027,0 h 2.69897 v -10.83028 h -2.69897 z m 16.24541,0 h 2.69898 v 2.71616 h 8.1313 v -2.71616 h 2.69897 v -2.69898 h -2.69897 v 2.69898 h -8.1313 v -5.41514 h 10.83027 v -5.41514 h -2.69897 v 2.71616 h -8.1313 v -2.71616 h 8.1313 v -2.69898 h -8.1313 v 2.69898 h -2.69898 z m 16.24542,-8.11412 h 2.69898 v 5.41514 h 2.71616 v 5.41514 h 2.69898 v -5.41514 h 2.71616 v -5.41514 h 2.69898 v -5.41514 h -2.69898 v 5.41514 h -2.71616 v 5.41514 h -2.69898 v -5.41514 h -2.71616 v -5.41514 h -2.69898 z"
     id="text1"
     aria-label=".is-a.dev" />
</svg>
