<svg xmlns="http://www.w3.org/2000/svg" xmlns:svg="http://www.w3.org/2000/svg" id="svg1" width="800" height="800" version="1.1" viewBox="0 0 211.667 211.667"><path id="path1" fill="#0f0c19" d="M-.025 214.411h213.801V-.133H-.025z"/><path style="font-size:35.207px;line-height:1.25;font-family:CozetteVector;-inkscape-font-specification:CozetteVector;fill:#4e3aa3;stroke-width:.88" id="text1" d="m 35.549278,111.22286 h -5.415139 v 5.41514 h 5.415139 z M 49.095723,97.676418 h 2.698974 v -2.698975 h -2.698974 z m -2.716165,5.415142 h 2.716165 v 10.83028 h 2.698974 v 2.71616 h 5.415139 v -2.71616 h -5.415139 v -13.52926 h -5.415139 z m 13.546444,2.71616 h 2.698974 v 2.69898 h 8.131305 v 5.41514 h 2.698974 v -5.41514 h -2.698974 v -2.69898 h -8.131305 v -2.71616 h 10.830279 v -2.69898 H 62.624976 v 2.69898 h -2.698974 z m 0,10.83028 h 10.830279 v -2.71616 H 59.926002 Z m 16.245419,-8.1313 h 13.529252 v -2.69898 H 76.171421 Z m 16.245418,5.41514 h 2.698974 v 2.71616 h 5.415137 v -2.71616 h -5.415137 v -10.83028 h 8.131307 v 8.1313 h -2.71617 v 2.69898 h 2.71617 v 2.71616 h 2.69897 V 100.39258 H 95.115813 v 2.69898 h -2.698974 z m 24.359531,-2.69898 h -5.41513 v 5.41514 h 5.41513 z m 18.96158,2.69898 h -8.1313 v 2.71616 h 10.83028 V 92.261278 h -2.69898 v 8.131302 h -8.1313 v 2.69898 h 8.1313 z m -10.83027,0 h 2.69897 v -10.83028 h -2.69897 z m 16.24541,0 h 2.69898 v 2.71616 h 8.1313 v -2.71616 h 2.69897 v -2.69898 h -2.69897 v 2.69898 h -8.1313 v -5.41514 h 10.83027 v -5.41514 h -2.69897 v 2.71616 h -8.1313 v -2.71616 h 8.1313 v -2.69898 h -8.1313 v 2.69898 h -2.69898 z m 16.24542,-8.11412 h 2.69898 v 5.41514 h 2.71616 v 5.41514 h 2.69898 v -5.41514 h 2.71616 v -5.41514 h 2.69898 v -5.41514 h -2.69898 v 5.41514 h -2.71616 v 5.41514 h -2.69898 v -5.41514 h -2.71616 v -5.41514 h -2.69898 z" aria-label=".is-a.dev"/></svg>